<mxfile host="app.diagrams.net" modified="2024-03-27T18:34:08.067Z" agent="Mozilla/5.0 (X11; Linux x86_64) AppleWebKit/537.36 (KHTML, like Gecko) Chrome/122.0.0.0 Safari/537.36" version="24.2.0" etag="tsM78UBkUg1RkBzR_eoC" type="github">
  <diagram name="Page-1" id="RtDBWjkxcxxhgjb4n_f1">
    <mxGraphModel>
      <root>
        <mxCell id="0" />
        <mxCell id="1" parent="0" />
      </root>
    </mxGraphModel>
  </diagram>
</mxfile>
